<svg width="139" height="140" viewBox="0 0 139 140" fill="none" xmlns="http://www.w3.org/2000/svg">
<g clip-path="url(#clip0_33_1243)" filter="url(#filter0_i_33_1243)">
<path d="M23.3489 0.0355684L113.457 5.74972C117.032 5.97642 120.527 6.90279 123.743 8.47594C126.959 10.0491 129.832 12.2382 132.199 14.9183C134.566 17.5984 136.38 20.717 137.538 24.0961C138.696 27.4751 139.175 31.0484 138.948 34.612L133.216 124.435C133.077 126.612 132.509 128.741 131.545 130.7C130.58 132.658 129.239 134.408 127.596 135.85C125.953 137.292 124.042 138.396 121.971 139.102C119.899 139.807 117.709 140.099 115.525 139.96L27.6661 134.389C19.8497 133.893 12.5509 130.322 7.3755 124.462C2.20008 118.602 -0.428097 110.933 0.069148 103.141L5.65759 15.5726C5.93821 11.1753 7.95968 7.06931 11.2773 4.1578C14.5949 1.24628 18.9369 -0.232236 23.3481 0.0474963L23.3489 0.0355684Z" fill="#003E8A"/>
<path d="M50.5618 95.7656C63.0074 89.431 73.6486 81.0108 83.3904 71.3715L83.5523 71.4731V72.501C83.5523 73.6603 83.5883 74.8197 83.5523 75.973C83.5368 76.3715 83.382 76.752 83.1147 77.0487C80.7167 79.2718 78.3187 81.5068 75.8307 83.6223C73.6246 85.5048 71.3345 87.2916 69.0264 89.0485C67.2279 90.4171 65.3395 91.7079 63.4451 92.9569C61.3708 94.3313 59.2486 95.6759 57.1203 96.9369C55.148 98.0962 53.0977 99.1361 51.0654 100.2C50.8695 100.265 50.7024 100.396 50.593 100.57C50.4835 100.745 50.4386 100.952 50.4659 101.156C50.5918 102.674 50.5978 104.21 50.8136 105.716C50.9795 106.947 51.479 108.11 52.2584 109.08C52.7943 109.669 53.4912 110.089 54.2633 110.289C55.0355 110.488 55.8493 110.459 56.6048 110.204C58.1563 109.648 59.4406 108.53 60.2018 107.072C61.4008 105.046 62.4379 102.943 63.577 100.887C64.3384 99.3373 65.4434 97.9804 66.8083 96.9189C69.2063 95.2038 73.0011 95.2995 74.8476 98.2158C75.8227 99.8092 76.4099 101.608 76.5621 103.469C76.7 104.554 76.7 105.652 76.5621 106.738C76.3426 107.871 75.7862 108.913 74.9651 109.727C74.1441 110.541 73.0963 111.09 71.958 111.303C71.159 111.366 70.3557 111.258 69.6019 110.986C67.4855 110.33 65.4687 109.389 63.6069 108.19C63.1753 107.915 63.0674 108.22 62.9055 108.5C62.306 109.498 61.8084 110.532 61.185 111.488C60.1059 113.15 58.733 114.548 56.7666 115.074C53.7032 115.917 50.8915 115.206 48.9192 112.516C46.9468 109.827 46.3713 106.672 46.4013 103.391C46.4013 102.291 46.4013 102.333 45.4061 102.674C42.7803 103.54 40.1725 104.503 37.4987 105.19C32.4749 106.481 27.4871 106.385 22.6671 104.246C19.5519 102.957 16.8826 100.788 14.9875 98.0066C13.4358 95.6221 12.5615 92.863 12.4576 90.0226C12.23 86.9645 12.6382 83.8925 13.6566 80.9989C14.3968 78.9177 15.5577 77.0101 17.0674 75.3942C18.577 73.7783 20.4034 72.4885 22.4333 71.6046C24.9836 70.3832 27.8331 69.9205 30.6404 70.2719C32.9905 70.5946 35.0887 71.4193 36.5335 73.4392C37.5739 74.9382 38.0026 76.7758 37.7325 78.5786C37.5047 80.7658 36.3477 82.5048 35.0108 84.1363C34.6331 84.6024 34.7051 84.8355 35.1067 85.2418C36.4736 86.6283 36.5695 86.198 35.1067 87.6322C33.6439 89.0665 34.2314 89.0784 32.7087 87.6322C32.1392 87.0944 31.5996 86.5267 31.0421 85.9769C30.3827 85.3195 30.4006 85.3434 31.0421 84.6383C31.9234 83.694 32.8406 82.7618 33.614 81.7399C34.237 81.0229 34.6458 80.1461 34.7942 79.2092C34.9425 78.2722 34.8244 77.3126 34.4533 76.4392C34.1922 75.8333 33.7973 75.294 33.298 74.8615C32.7987 74.4289 32.2079 74.1144 31.5697 73.9412C29.41 73.2577 27.0717 73.407 25.0171 74.3595C22.4293 75.4963 20.2444 77.3828 18.7464 79.7738C17.7804 81.3322 17.1155 83.0571 16.786 84.8594C16.3656 86.7606 16.3432 88.7279 16.7201 90.6382C17.0288 92.1711 17.6401 93.6276 18.5186 94.923C19.3851 96.2065 20.4683 97.3307 21.7199 98.2456C24.2382 100.158 27.2856 101.251 30.4486 101.377C33.9768 101.415 37.4853 100.847 40.8199 99.6978C42.4985 99.16 44.1412 98.5026 45.8078 97.9349C45.9922 97.8999 46.1565 97.7967 46.2677 97.6459C46.3789 97.4951 46.4288 97.308 46.4073 97.1221C46.3593 91.4509 46.3533 85.7677 46.2634 80.1204C46.1886 78.81 46.0244 77.5062 45.7718 76.2181C45.7272 76.0398 45.7409 75.852 45.811 75.6821C45.8811 75.5122 46.0039 75.3692 46.1615 75.2738C47.1267 74.5687 48.0679 73.8336 49.0211 73.1046C49.5307 72.7161 49.6206 72.7579 49.7825 73.3615C50.3209 75.6155 50.5627 77.9297 50.5019 80.2459C50.5019 85.0865 50.5019 89.933 50.5019 94.7795C50.4899 95.0186 50.5318 95.3114 50.5618 95.7656ZM69.542 100.463C69.2003 100.54 68.8466 100.594 68.5168 100.702C67.078 101.18 66.2567 102.327 65.4774 103.516C65.2915 103.803 65.3395 104.042 65.6812 104.174L72.1318 106.564C72.5215 106.702 72.6474 106.463 72.6294 106.14C72.6484 104.605 72.2772 103.089 71.5503 101.736C71.368 101.358 71.0833 101.038 70.7284 100.813C70.3735 100.588 69.9625 100.467 69.542 100.463Z" fill="white"/>
<path d="M83.4924 31.2964C83.5283 31.6669 83.5643 31.894 83.5643 32.0732C83.5643 33.1908 83.4804 34.3142 83.5643 35.4258C83.6007 35.832 83.5322 36.2407 83.3653 36.6131C83.1985 36.9855 82.9389 37.3091 82.6111 37.5532C79.5417 40.2604 76.5322 43.0392 73.3908 45.6627C71.1667 47.5212 68.7926 49.2005 66.4486 50.9096C62.9987 53.4133 59.3946 55.6986 55.6576 57.7522C54.0989 58.6127 52.4922 59.3956 50.9275 60.2442C50.8114 60.3173 50.7124 60.4143 50.6369 60.5287C50.5614 60.6431 50.5113 60.7723 50.4899 60.9075C50.4117 62.7587 50.7753 64.6021 51.551 66.2859C52.798 68.8317 55.3878 69.2739 57.546 68.0369C59.2186 67.0867 60.1778 65.4851 61.0591 63.8537C61.8444 62.4075 62.5399 60.9135 63.3192 59.4673C64.0997 57.8803 65.1972 56.4689 66.5445 55.3199C67.4524 54.6208 68.5475 54.2049 69.6919 54.1247C72.5995 53.8678 74.326 55.2542 75.4591 57.7103C76.3866 59.8231 76.7976 62.1253 76.6581 64.4274C76.5741 66.5249 74.8056 68.6106 72.6714 69.3815C71.5548 69.7327 70.3479 69.6647 69.2782 69.1902C67.3165 68.5541 65.4478 67.6619 63.7209 66.5369C63.3132 66.256 63.1214 66.3636 62.8456 66.7879C62.1254 68.1296 61.3246 69.4268 60.4476 70.6723C59.6353 71.8304 58.4935 72.7192 57.1695 73.2241C55.8455 73.729 54.4001 73.8268 53.0198 73.5049C51.2963 73.1376 49.7881 72.1067 48.8233 70.6364C47.2929 68.3854 46.4591 65.7361 46.4253 63.017C46.3953 62.3836 46.2874 62.3298 45.7119 62.5629C41.6026 64.3103 37.2612 65.4557 32.8227 65.9632C30.0701 66.2044 27.2973 65.8706 24.6814 64.9831C21.6741 64.0889 18.9459 62.4432 16.7561 60.2023C13.9846 57.3397 12.4314 53.5194 12.4217 49.5411C12.3996 47.8551 12.4978 46.1696 12.7154 44.4974C12.9816 42.6334 13.5656 40.8286 14.442 39.1608C15.4185 37.2082 16.782 35.4732 18.4503 34.0609C20.1185 32.6485 22.0568 31.5881 24.1479 30.9438C26.9891 29.8969 30.1052 29.8568 32.9725 30.8302C37.6966 32.5035 38.7637 37.2305 37.0311 40.9895C36.4062 42.1598 35.68 43.2735 34.861 44.3181C34.6451 44.6288 34.6271 44.8201 34.861 45.0711C35.2087 45.4117 35.5564 45.7643 35.8981 46.1109C36.1379 46.3619 36.1918 46.595 35.8981 46.8698C35.3406 47.3898 34.801 47.9336 34.2615 48.4714C34.0516 48.6866 33.8658 48.7762 33.614 48.5252L30.7304 45.6687C30.4786 45.4237 30.5505 45.2025 30.7784 44.9575C31.6836 43.9834 32.6188 43.0332 33.4581 42.0054C35.2207 39.8421 35.4545 36.8301 33.4581 35.0373C32.4367 34.1578 31.1493 33.6445 29.8012 33.5792C27.6466 33.4013 25.4923 33.9256 23.6623 35.0732C18.9982 37.9178 16.7201 42.1309 16.4683 47.5212C16.2865 50.244 17.0577 52.9452 18.6505 55.1645C19.7696 56.7224 21.198 58.0344 22.847 59.0191C24.7169 60.1846 26.8169 60.9347 29.0038 61.2183C30.2334 61.3615 31.4736 61.3915 32.7087 61.3079C37.3249 60.9553 41.7012 59.5629 45.9457 57.8597C46.3474 57.6984 46.3534 57.3936 46.3534 57.047V48.8419C46.3534 46.1527 46.4253 43.4635 46.3174 40.7803C46.2275 38.617 45.9037 36.4596 45.7179 34.2963C45.706 34.1773 45.7196 34.0572 45.7578 33.9438C45.796 33.8305 45.8581 33.7266 45.9397 33.639C46.9768 32.8023 48.038 31.9956 49.0991 31.1888C49.5007 30.884 49.6326 31.1888 49.6986 31.5055C49.9204 32.635 50.1902 33.7645 50.2981 34.9118C50.43 36.3341 50.4599 37.7684 50.4599 39.1966C50.4599 44.4137 50.4599 49.6367 50.4599 54.8538C50.4599 55.6845 50.5738 55.7442 51.3292 55.3199C53.5593 54.0769 55.8494 52.9295 58.0016 51.573C61.0591 49.6367 64.0566 47.581 66.9941 45.4834C70.8673 42.6726 74.5651 39.6292 78.0669 36.37C79.7155 34.864 81.2982 33.2864 82.9168 31.7446C83.0787 31.631 83.2166 31.5294 83.4924 31.2964ZM69.542 58.7143C69.2533 58.7565 68.9671 58.8144 68.6847 58.8876C67.138 59.3418 66.2867 60.543 65.4594 61.8099C65.2556 62.1206 65.4174 62.3238 65.7292 62.4075C67.8394 63.2043 69.9497 63.9871 72.0599 64.756C72.4376 64.8935 72.6594 64.7142 72.6234 64.3318C72.6422 62.8002 72.271 61.2889 71.5443 59.9394C71.358 59.5697 71.0719 59.2591 70.7181 59.0427C70.3644 58.8263 69.9571 58.7125 69.542 58.7143Z" fill="white"/>
<path d="M93.3242 60.1963C93.7798 59.6405 94.2654 59.1086 94.679 58.523C97.077 55.1286 99.535 51.7821 101.783 48.2921C103.54 45.567 105.014 42.6567 106.627 39.836C107.422 38.2575 108.586 36.8924 110.02 35.856C111.909 34.619 115.332 34.5771 117.154 36.9556C118.307 38.5701 119.016 40.4573 119.211 42.4296C119.323 43.3234 119.363 44.2246 119.33 45.1248C119.252 46.4524 118.716 47.7123 117.814 48.6921C116.912 49.6719 115.699 50.3116 114.379 50.5032C113.615 50.5589 112.849 50.434 112.142 50.1387C110.344 49.4036 108.605 48.549 106.855 47.7124C106.423 47.5092 106.159 47.4136 105.896 47.9694C104.263 51.2486 102.315 54.3626 100.081 57.268C98.2041 59.8258 96.2377 62.3178 94.3073 64.8396C94.1563 65.0044 94.0598 65.2114 94.0308 65.4327C94.0018 65.654 94.0419 65.8788 94.1455 66.0767C94.5578 66.9958 95.2444 67.7659 96.1118 68.2818C96.6026 68.5288 97.1447 68.6578 97.6945 68.6583C98.4741 68.6784 99.2478 68.5184 99.955 68.1908C100.662 67.8632 101.284 67.3769 101.771 66.7699C103.264 65.1384 104.121 63.1245 105.116 61.1943C106.111 59.264 107.137 57.1724 108.881 55.6366C109.68 54.9008 110.664 54.3953 111.728 54.1742C112.793 53.9532 113.897 54.0249 114.924 54.3816C115.576 54.6187 116.173 54.9844 116.68 55.4567C117.187 55.929 117.593 56.4983 117.874 57.1306C119.031 59.3999 119.539 61.943 119.342 64.4811C119.193 66.9671 116.759 69.483 114.277 69.5965C113.244 69.5537 112.228 69.3229 111.279 68.9153C109.526 68.33 107.861 67.5119 106.327 66.483C105.956 66.2261 105.728 66.4233 105.566 66.7938C104.589 68.7001 103.546 70.5467 101.909 72.0049C100.799 72.9185 99.4443 73.4871 98.013 73.6401C96.5817 73.793 95.1368 73.5237 93.8577 72.8654C92.7066 72.1812 91.7445 71.2221 91.0581 70.0746C90.6264 69.3754 90.4586 69.3874 89.907 70.0089C88.8399 71.2041 87.7428 72.3993 86.6577 73.5646C86.5733 73.6385 86.4808 73.7026 86.382 73.7558C86.3184 73.5737 86.2742 73.3854 86.2501 73.1941C86.2501 71.8196 86.292 70.4451 86.2501 69.0766C86.2506 68.825 86.3042 68.5763 86.4075 68.3467C86.5108 68.1171 86.6614 67.9117 86.8496 67.744C87.503 67.0149 88.1984 66.3157 88.8159 65.5568C89.028 65.251 89.1429 64.8887 89.1456 64.5169C89.1456 63.8118 89.0557 63.1066 89.0557 62.4014C89.0557 55.1406 89.0557 47.8857 89.0557 40.6308C89.0638 38.5127 88.8488 36.3995 88.4143 34.3261C88.4112 34.1884 88.4386 34.0516 88.4946 33.9256C88.5505 33.7996 88.6336 33.6874 88.738 33.5971C89.7272 32.7903 90.7463 32.0313 91.7355 31.2604C92.1252 30.9616 92.335 31.0154 92.4009 31.5294C92.7267 33.0799 92.9411 34.6516 93.0424 36.2325C93.1323 44.0013 93.1203 51.806 93.1503 59.5927V60.1485L93.3242 60.1963ZM112.142 58.7441C112.029 58.7383 111.915 58.7383 111.801 58.7441C111.687 58.7441 111.573 58.8039 111.459 58.8337C109.858 59.1983 109.013 60.4293 108.168 61.6664C107.88 62.0847 108.024 62.264 108.432 62.4612C109.631 62.9572 110.83 63.495 112.077 63.9552C112.94 64.2779 113.833 64.511 114.72 64.762C114.99 64.8396 115.32 64.9054 115.29 64.4512C115.158 62.8257 115.026 61.2003 114.091 59.7959C113.891 59.4618 113.605 59.1877 113.262 59.0026C112.919 58.8175 112.532 58.7281 112.142 58.7441ZM115.218 45.8658C115.285 44.3665 115.042 42.8695 114.504 41.4675C113.437 39.5073 112.286 39.2265 110.446 40.2185C109.385 40.8161 108.797 41.8679 108.258 42.9137C108.204 43.0212 108.402 43.3858 108.557 43.4515C110.08 44.079 111.615 44.6885 113.156 45.2443C113.815 45.5072 114.504 45.6566 115.218 45.8658Z" fill="white"/>
<path d="M118.869 87.3931L116.687 87.172C113.12 86.8075 109.541 86.5744 105.98 87.2079C104.834 87.4609 103.704 87.7842 102.598 88.176C102.173 88.3015 102.209 88.666 102.323 88.9529C102.838 90.3035 103.372 91.6481 103.935 92.9747C104.175 93.5305 104.535 94.0325 104.781 94.5883C104.889 94.8669 104.889 95.1761 104.781 95.4548C104.241 96.4707 103.636 97.4567 103.054 98.4428C102.868 98.7715 102.67 98.9029 102.419 98.5025C101.221 96.7801 100.227 94.9252 99.457 92.9747C98.933 91.5146 98.6811 89.9714 98.7136 88.421C98.7736 86.4788 99.8587 85.176 101.483 84.2796C103.306 83.2986 105.317 82.7159 107.382 82.5705C109.783 82.2865 112.201 82.1687 114.618 82.2179C117.808 82.4032 120.973 82.953 124.15 83.3653C124.99 83.4729 125.817 83.6522 126.656 83.7836C127.034 83.8374 127.13 84.0107 126.938 84.3454C126.285 85.4808 125.637 86.6222 124.972 87.7577C124.879 87.9297 124.721 88.0584 124.534 88.1162C123.101 88.2656 122.136 89.2039 121.285 90.1839C120.008 91.6122 118.815 93.1241 117.622 94.6241C115.392 97.4328 113.168 100.248 110.296 102.459C106.747 105.184 102.778 106.516 98.306 105.919C95.7679 105.678 93.4249 104.458 91.7774 102.518C90.6375 101.18 89.865 99.5699 89.5353 97.8452C89.2659 96.4235 89.1096 94.9827 89.0677 93.5365C89.0017 89.7118 89.1036 85.8872 89.0077 82.0625C88.9598 80.1502 88.66 78.2439 88.4082 76.3435C88.3466 76.12 88.3595 75.8827 88.4449 75.6671C88.5303 75.4516 88.6837 75.2695 88.8818 75.1483C89.811 74.4969 90.6803 73.7858 91.6036 73.0866C92.1611 72.6623 92.233 72.7101 92.4189 73.4093C93.1023 75.9371 93.1023 78.5247 93.1263 81.1064C93.1263 84.8533 93.1263 88.6003 93.1263 92.3473C93.0756 94.1577 93.4449 95.9553 94.2054 97.6002C94.6184 98.472 95.2286 99.2365 95.9879 99.8338C96.7472 100.431 97.635 100.845 98.5817 101.042C100.851 101.618 103.248 101.429 105.398 100.505C107.346 99.6411 109.084 98.3692 110.494 96.7755C112.478 94.5584 114.409 92.2875 116.381 90.0525C117.028 89.3174 117.724 88.6302 118.401 87.919C118.533 87.8055 118.641 87.6561 118.869 87.3931Z" fill="white"/>
<path d="M127.094 53.1148C127.094 58.8577 127.094 64.6066 127.094 70.3496C127.107 70.5419 127.065 70.7339 126.972 70.9032C126.88 71.0725 126.741 71.2121 126.572 71.3057C125.541 71.981 124.54 72.7041 123.527 73.4153C123.167 73.6663 123.023 73.5288 123.023 73.1464C123.023 72.6145 123.023 72.0886 123.023 71.5567C123.023 61.517 123.023 51.4773 123.023 41.4376C123.038 39.0454 122.817 36.6576 122.364 34.3083C122.353 34.1794 122.373 34.0498 122.421 33.9296C122.468 33.8094 122.543 33.7018 122.64 33.615C123.665 32.7844 124.72 32.0015 125.757 31.2246C126.141 30.9258 126.303 31.147 126.357 31.4995C126.711 33.316 126.957 35.1519 127.094 36.9975C127.19 42.3759 127.13 47.7543 127.13 53.1327L127.094 53.1148Z" fill="white"/>
<path d="M77.6472 89.7297C77.863 90.0823 78.0549 90.3692 78.2467 90.668C79.8243 93.3095 81.7187 95.7497 83.888 97.9348C85.2572 99.305 86.5406 100.758 87.7308 102.285C88.1701 102.873 88.4379 103.57 88.5046 104.3C88.5712 105.03 88.4342 105.764 88.1085 106.421C87.1013 108.638 85.4287 110.353 83.6902 111.996C80.609 114.869 76.853 116.924 72.7673 117.972C72.5501 118.049 72.3133 118.05 72.0956 117.975C71.8779 117.9 71.692 117.754 71.5683 117.56C70.9688 116.801 70.2614 116.108 69.6019 115.391C69.2662 115.026 69.3082 114.835 69.7878 114.715C73.8852 113.642 77.6813 111.647 80.8845 108.883C82.1761 107.823 83.2699 106.545 84.1158 105.106C84.2167 104.976 84.2626 104.812 84.2436 104.649C84.2245 104.486 84.142 104.337 84.0139 104.234C82.0116 102.004 79.9793 99.7993 78.0189 97.5105C77.1473 96.4066 76.3463 95.2489 75.6209 94.0444C75.5431 93.9166 75.4942 93.7733 75.4776 93.6247C75.461 93.4761 75.4772 93.3256 75.525 93.1839C76.1245 92.0783 76.7719 91.0086 77.4134 89.9329C77.4194 89.8851 77.4973 89.8493 77.6472 89.7297Z" fill="white"/>
<path d="M54.2368 85.1701C54.6564 84.9131 54.9681 84.7159 55.2859 84.5307C58.7596 82.5863 62.1037 80.4205 65.2975 78.0467C68.9425 75.2679 72.5455 72.4293 76.0885 69.495C78.2767 67.6664 80.285 65.6106 82.3533 63.6505C82.6111 63.4115 82.8449 63.1425 83.1087 62.9154C83.2105 62.8357 83.3397 62.7992 83.4684 62.8139C83.5223 62.8139 83.5883 63.0051 83.5883 63.1067C83.5883 64.6007 83.6302 66.0947 83.5403 67.5767C83.4221 68.0234 83.1559 68.4172 82.7849 68.6942C80.303 70.9711 77.863 73.2958 75.2792 75.4531C71.2286 78.8906 66.957 82.0606 62.4919 84.943C60.8532 85.9908 59.2006 87.0107 57.534 88.0027C57.425 88.0603 57.3036 88.0904 57.1803 88.0904C57.057 88.0904 56.9356 88.0603 56.8266 88.0027C55.9453 87.1063 55.154 86.1801 54.2368 85.1701Z" fill="white"/>
<path d="M59.3505 43.0273C60.7593 43.0811 61.9283 42.4297 63.0914 41.7664C63.2477 41.6478 63.412 41.54 63.583 41.4437C63.7355 41.3984 63.8921 41.3684 64.0506 41.354C64.0506 41.5273 64.0506 41.7664 63.9606 41.868C63.0112 42.8858 62.0108 43.8552 60.9631 44.7723C60.5928 45.0571 60.1669 45.2617 59.7126 45.3728C59.2584 45.4839 58.7859 45.4992 58.3253 45.4177C56.5268 45.1906 55.6456 43.9835 55.5497 42.119C55.466 40.7752 55.8033 39.4387 56.5149 38.2943C56.6761 38.0694 56.7443 37.7911 56.7052 37.5174C56.6662 37.2436 56.5228 36.9954 56.305 36.8242C55.9454 36.4256 55.6999 35.9378 55.5945 35.4121C55.489 34.8864 55.5273 34.3421 55.7055 33.8362C55.7691 33.5448 55.9396 33.2876 56.1836 33.1151C56.4277 32.9426 56.7276 32.8673 57.0244 32.904C57.6875 32.9835 58.3444 33.1073 58.9908 33.2745C60.2506 33.6185 61.59 33.528 62.7916 33.0175C62.9735 32.971 63.1619 32.9549 63.3492 32.9697C63.3492 33.149 63.3492 33.3342 63.2892 33.5135C63.2195 33.8194 63.0669 34.1004 62.8481 34.3259C62.6293 34.5514 62.3526 34.7127 62.0482 34.7924C59.9581 35.5235 58.1674 36.92 56.9525 38.7664C56.638 39.2591 56.4335 39.8135 56.353 40.3919C56.3083 40.7046 56.3299 41.0232 56.4164 41.3271C56.5029 41.631 56.6524 41.9135 56.8552 42.1562C57.0581 42.3989 57.3097 42.5965 57.5939 42.7363C57.8781 42.876 58.1885 42.9548 58.5052 42.9676C58.751 43.0273 59.0447 43.0273 59.3505 43.0273ZM59.2306 34.9418C58.2474 34.5892 57.3841 34.1948 56.401 34.2964C56.3274 34.2915 56.2538 34.3056 56.1872 34.3371C56.1207 34.3687 56.0633 34.4167 56.0206 34.4766C55.9779 34.5365 55.9514 34.6063 55.9434 34.6794C55.9355 34.7525 55.9465 34.8263 55.9753 34.894C56.1372 35.7186 56.7726 36.1609 57.3781 36.621C57.4381 36.6688 57.6539 36.621 57.7318 36.5374C58.1995 36.0414 58.6491 35.5513 59.2306 34.9418Z" fill="white"/>
<path d="M62.4319 35.0075C62.5038 35.2345 62.5818 35.4616 62.6357 35.6947C62.9355 36.8899 64.7939 37.613 65.7711 36.8899C65.8005 36.8272 65.8158 36.7589 65.8158 36.6897C65.8158 36.6205 65.8005 36.5522 65.7711 36.4895C65.4803 36.3824 65.2277 36.1919 65.0453 35.942C64.8629 35.6921 64.7587 35.394 64.746 35.0851C64.7577 34.7103 64.8474 34.342 65.0094 34.0036C65.1714 33.6651 65.4022 33.3639 65.6872 33.119C66.0854 32.7191 66.5551 32.3968 67.072 32.1689C67.2448 32.0793 67.4396 32.0406 67.6336 32.0574C67.8276 32.0742 68.0128 32.1457 68.1675 32.2635C68.3222 32.3814 68.44 32.5408 68.5072 32.723C68.5744 32.9052 68.5881 33.1027 68.5468 33.2923C68.4847 33.774 68.3555 34.2446 68.1631 34.6907C68.1032 34.8461 67.8454 34.9238 67.6775 35.0373C67.6162 34.8568 67.5917 34.6658 67.6056 34.4756C67.7974 33.7286 67.5516 33.2087 66.9102 33.2804C66.4721 33.3916 66.0632 33.5954 65.7112 33.878C65.6392 33.9198 65.6272 34.2246 65.7112 34.3322C66.2069 34.9507 66.9254 35.3517 67.7135 35.4497C67.8993 35.4855 68.1571 35.2584 68.3669 35.127C68.9664 34.7266 69.5659 34.2963 70.2194 33.9318C70.4485 33.8498 70.6894 33.8054 70.9328 33.8003C70.9639 34.0316 70.9517 34.2666 70.8968 34.4935C70.7928 34.7956 70.5956 35.0571 70.3333 35.2405C69.1488 35.8476 68.0845 36.6635 67.1919 37.6489C66.7486 38.1374 66.2206 38.5423 65.6332 38.8441C63.8347 39.6508 62.5938 38.5034 62.1681 36.8839C62.0822 36.4816 62.0499 36.0696 62.0722 35.6588C62.1018 35.4274 62.1602 35.2006 62.246 34.9836L62.4319 35.0075Z" fill="white"/>
<path d="M82.0056 48.9674C82.1075 49.0451 82.2094 49.1049 82.2934 49.1825C83.2825 50.1566 84.2717 51.1188 85.2369 52.1168C85.281 52.1964 85.3041 52.2858 85.3041 52.3767C85.3041 52.4676 85.281 52.5571 85.2369 52.6367C84.6374 53.2343 84.0379 53.8319 83.4384 54.4295C83.2286 54.6327 83.0787 54.6506 82.8389 54.4295C81.9217 53.4972 80.9804 52.5948 80.0512 51.6745C79.7994 51.4355 79.6675 51.1845 79.9793 50.8797L81.7238 49.1467C81.8106 49.0764 81.9051 49.0162 82.0056 48.9674Z" fill="white"/>
<path d="M110.59 79.0148C110.458 78.9073 110.332 78.8176 110.224 78.7101C109.343 77.8256 108.467 76.9173 107.568 76.0507C107.499 76.0043 107.442 75.9415 107.403 75.8681C107.364 75.7946 107.343 75.7126 107.343 75.6294C107.343 75.5462 107.364 75.4643 107.403 75.3908C107.442 75.3173 107.499 75.2546 107.568 75.2081C108.084 74.6942 108.611 74.1982 109.115 73.6842C109.159 73.6189 109.218 73.5654 109.288 73.5283C109.357 73.4913 109.435 73.4719 109.514 73.4719C109.592 73.4719 109.67 73.4913 109.74 73.5283C109.809 73.5654 109.868 73.6189 109.912 73.6842C110.824 74.5986 111.753 75.477 112.646 76.4332C112.709 76.5262 112.747 76.6336 112.758 76.7453C112.768 76.857 112.751 76.9696 112.706 77.0726C112.142 77.6702 111.507 78.2678 110.907 78.8654C110.807 78.926 110.7 78.9761 110.59 79.0148Z" fill="white"/>
<path d="M59.0987 38.1449L59.3804 38.2764C59.7581 38.4377 60.1238 38.623 60.5075 38.7604C60.6637 38.786 60.8088 38.8574 60.9242 38.9654C61.0396 39.0735 61.1201 39.2133 61.1555 39.3672C61.1908 39.521 61.1795 39.6819 61.1228 39.8292C61.0661 39.9766 60.9667 40.1038 60.8372 40.1947C60.7897 40.2372 60.7334 40.2689 60.6723 40.2875C60.6112 40.3061 60.5468 40.3111 60.4835 40.3022C60.0018 40.1427 59.5345 39.9428 59.0867 39.7046C58.9769 39.6304 58.8837 39.5345 58.8128 39.4227C58.7419 39.311 58.6948 39.1859 58.6746 39.0553C58.6543 38.9246 58.6613 38.7912 58.6951 38.6634C58.7289 38.5355 58.7887 38.416 58.8709 38.3122C58.9395 38.2472 59.0161 38.191 59.0987 38.1449Z" fill="white"/>
</g>
<defs>
<filter id="filter0_i_33_1243" x="0" y="0" width="139" height="144" filterUnits="userSpaceOnUse" color-interpolation-filters="sRGB">
<feFlood flood-opacity="0" result="BackgroundImageFix"/>
<feBlend mode="normal" in="SourceGraphic" in2="BackgroundImageFix" result="shape"/>
<feColorMatrix in="SourceAlpha" type="matrix" values="0 0 0 0 0 0 0 0 0 0 0 0 0 0 0 0 0 0 127 0" result="hardAlpha"/>
<feOffset dy="4"/>
<feGaussianBlur stdDeviation="2"/>
<feComposite in2="hardAlpha" operator="arithmetic" k2="-1" k3="1"/>
<feColorMatrix type="matrix" values="0 0 0 0 0 0 0 0 0 0 0 0 0 0 0 0 0 0 0.25 0"/>
<feBlend mode="normal" in2="shape" result="effect1_innerShadow_33_1243"/>
</filter>
<clipPath id="clip0_33_1243">
<rect width="139" height="140" fill="white"/>
</clipPath>
</defs>
</svg>
