<svg width="323" height="95" viewBox="0 0 323 95" fill="none" xmlns="http://www.w3.org/2000/svg">
<g clip-path="url(#clip0_36_1366)">
<path d="M0 58.7336C40.6375 67.1925 81.3487 71.2808 122.477 63.6444C120.66 61.5082 118.916 59.4825 117.184 57.4322C116.815 57.0129 116.55 56.5124 116.411 55.9713C116.791 56.4132 117.148 56.8675 117.553 57.2726C119.395 59.1019 121.237 60.9558 123.153 62.7237C123.352 62.891 123.583 63.0156 123.833 63.0895C124.082 63.1635 124.344 63.1852 124.602 63.1534C137.736 60.4535 150.538 56.3371 162.783 50.8763C162.857 50.8763 162.918 50.7781 163.127 50.6062C160.671 50.0906 158.325 49.5626 155.967 49.0961C148.857 47.672 141.746 46.2969 134.636 44.8605C134.095 44.75 133.186 44.2958 133.199 44.0502C133.252 43.2135 133.523 42.4052 133.985 41.7053C134.292 41.2511 135.053 41.0792 135.63 40.8336C136.707 40.3126 137.57 39.4343 138.071 38.3485C138.573 37.2628 138.683 36.0367 138.381 34.8793C138.007 33.69 138.06 32.4077 138.531 31.2534C139.002 30.0992 139.861 29.1454 140.96 28.5566C141.483 29.6816 142.282 30.6563 143.283 31.3903C144.283 32.1243 145.453 32.5938 146.683 32.7553C147.809 32.9195 148.948 32.973 150.085 32.9149C150.92 32.9149 151.313 33.1236 151.018 34.0076C150.048 37.261 148.476 39.2622 145.823 38.8202C144.027 38.3791 142.266 37.8045 140.555 37.1014L137.276 42.0122L171.994 48.7401L172.191 49.0961C171.184 50.1768 170.073 51.1555 168.875 52.0181C161.559 56.3081 153.807 59.8064 145.75 62.4536C140.837 64.1232 135.778 65.5351 130.779 67.0698C130.595 67.0698 130.411 67.2294 130.116 67.3521C133.969 69.1453 138.01 70.5042 142.164 71.4036C157.441 74.8902 168.764 64.5898 172.78 55.2469C173.828 52.8923 174.34 50.3344 174.278 47.7579C174.094 40.6372 174.069 33.5165 173.726 26.4081C173.613 25.1591 173.76 23.9003 174.157 22.7109C174.555 21.5214 175.194 20.4269 176.034 19.4961C176.673 18.784 177.263 18.0228 178.085 17.0407C178.184 18.3543 178.294 19.3733 178.331 20.4046C178.585 31.0447 178.834 41.6848 179.08 52.325C179.032 53.8035 179.291 55.2759 179.84 56.6494C180.39 58.0229 181.218 59.2676 182.273 60.3051C183.158 61.0601 184.186 61.6278 185.297 61.9739C186.407 62.32 187.576 62.4372 188.733 62.3185C188.897 62.279 189.051 62.2034 189.183 62.0972C189.314 61.991 189.421 61.857 189.494 61.7047C190.366 59.8999 191.177 58.0215 192.024 56.2045C189.114 53.4054 188.61 50.1765 190.796 46.1987C192.636 42.6365 193.54 38.6655 193.424 34.6583C193.522 24.1736 198.042 15.9603 207.547 11.0495C209.549 9.98135 212.067 9.82175 214.351 9.36749C215.039 9.22017 215.407 9.55165 215.395 10.3619C215.395 19.5043 215.395 28.6466 215.395 37.7889H215.039V9.5762C211.8 9.67422 208.662 10.7201 206.012 12.5841C200.682 16.4636 197.059 21.5341 196.114 28.1269C195.168 34.7197 198.115 39.6428 204.551 42.1964C204.133 40.4899 203.605 39.9497 201.861 39.9497C200.633 39.9497 200.375 39.0166 199.712 38.4273C199.049 37.838 199.037 37.0032 199.503 36.1315C200.326 34.5846 201.051 32.9763 201.886 31.2207C204.342 33.4797 206.172 36.021 206.381 39.1517C206.447 42.5117 206.324 45.8728 206.012 49.2189C206.012 50.3606 205.386 50.3607 204.489 49.9064C200.117 47.7211 198.57 46.432 195.119 42C194.308 43.6328 193.461 45.2534 192.663 46.9108C192.492 47.1974 192.387 47.5178 192.353 47.8496C192.32 48.1813 192.36 48.5163 192.47 48.8311C192.58 49.1459 192.757 49.4327 192.99 49.6715C193.223 49.9103 193.505 50.0952 193.817 50.2133C196.404 51.5189 199.094 52.6071 201.861 53.4667C206.221 54.6945 210.716 55.5293 215.075 56.8184C218.465 57.8251 219.46 60.0718 218.563 63.4971C218.511 63.616 218.47 63.7392 218.44 63.8654C218.035 68.0151 215.444 70.3968 211.919 72.1525C207.879 74.1536 203.924 76.3267 199.945 78.426C198.955 79.0435 197.843 79.4391 196.686 79.5853C195.528 79.7316 194.352 79.6251 193.24 79.2732C189.961 78.0455 188.475 75.59 188.242 72.2138C188.168 71.1335 188.131 70.0408 188.082 68.9604C179.682 69.341 176.243 63.5094 174.573 56.6833C174.057 57.5059 173.64 58.218 173.185 58.8932C168.469 65.8052 162.354 70.9002 154.076 72.9136C149.833 73.8169 145.44 73.7413 141.23 72.6926C137.233 71.6628 133.368 70.1756 129.711 68.2606C128.972 67.9141 128.142 67.811 127.341 67.966C118.185 70.3003 108.866 71.9419 99.463 72.8768C95.9875 73.1837 92.4752 73.2697 88.9874 73.4661C88.6132 73.5576 88.2182 73.5015 87.8843 73.3094C87.5504 73.1174 87.3033 72.8042 87.1944 72.4348C86.9831 71.8324 86.6059 71.3018 86.1061 70.9043C85.6064 70.5068 85.0045 70.2586 84.3698 70.1881C83.2113 69.9556 82.0374 69.8079 80.8574 69.7462C65.4093 69.5903 49.9961 68.244 34.7549 65.7193C23.8618 63.9514 13.0546 61.6801 2.21056 59.5807C1.44931 59.3667 0.709339 59.0831 0 58.7336ZM202.009 70.6669C203.175 70.1022 204.33 69.5129 205.496 68.9727C208.517 67.5608 211.539 66.1735 214.535 64.7494C214.835 64.5622 215.107 64.3351 215.346 64.0741C215.124 63.7995 214.858 63.5631 214.56 63.3743C213.773 62.975 212.951 62.6503 212.103 62.4045C209.414 61.7415 206.675 61.2504 203.986 60.5261C200.4 59.5562 196.851 58.439 193.117 57.334L190.796 62.3431C191.779 62.3431 192.454 62.3431 193.129 62.3431C195.794 62.5395 198.508 62.5886 201.137 63.0429C201.58 63.1108 202.003 63.2779 202.373 63.5318C202.743 63.7857 203.051 64.1197 203.274 64.5091C203.497 64.8985 203.63 65.3332 203.661 65.7808C203.693 66.2284 203.624 66.6773 203.458 67.0943C203.046 68.313 202.562 69.506 202.009 70.6669ZM189.973 68.0887C189.794 68.8824 189.873 69.7125 190.197 70.4586C190.522 71.2046 191.076 71.828 191.779 72.2384C192.884 72.926 194.161 73.2904 195.463 73.2904C196.765 73.2904 198.041 72.926 199.147 72.2384C199.59 71.9814 199.936 71.5868 200.133 71.1146C200.331 70.6425 200.368 70.1188 200.24 69.6234C200.182 69.1805 199.955 68.777 199.608 68.496C199.261 68.215 198.819 68.078 198.373 68.1133L189.973 68.0887Z" fill="#003E8A"/>
<path d="M153.953 5.10717C153.804 5.57233 153.717 6.05542 153.695 6.54359C153.696 7.17799 153.837 7.80443 154.109 8.37768C154.38 8.95092 154.776 9.45667 155.267 9.8584C155.553 10.1977 155.87 10.51 156.213 10.7915C156.401 10.9627 156.516 11.2004 156.532 11.4544C156.484 12.1439 156.246 12.8066 155.845 13.3696C155.628 13.606 155.338 13.7619 155.022 13.8116C153.289 14.1039 151.535 14.2518 149.778 14.2536C149.202 14.3053 148.622 14.3053 148.046 14.2536H146.499C142.798 14.2536 140.948 13.0668 140.948 10.6932C141.037 9.47589 141.462 8.3071 142.176 7.31704C142.365 6.9996 142.587 6.70327 142.839 6.43309C142.108 7.47541 141.659 8.68938 141.537 9.95661C141.537 11.1843 142.458 12.0192 144.313 12.412C145.087 12.5535 145.872 12.6275 146.658 12.633C150.957 12.5594 153.618 12.453 154.641 12.3138C154.978 12.3074 155.31 12.2409 155.624 12.1174C154.427 11.2284 153.524 10.001 153.032 8.59386C152.982 8.33065 152.953 8.06375 152.946 7.79585V7.58714C152.96 6.68905 153.281 5.82275 153.855 5.13172L153.953 5.10717ZM145.271 2.45532C145.5 2.45532 146.028 2.92185 146.855 3.85491C146.953 3.94021 147.072 3.99933 147.199 4.02679C147.297 4.02679 147.567 3.76897 148.034 3.26561C148.326 2.92481 148.732 2.70218 149.176 2.63948C149.766 2.63948 150.404 3.08145 151.116 3.9654C151.282 4.09312 151.434 4.23707 151.571 4.3951C151.291 4.78821 150.875 5.06375 150.404 5.16856H150.281C150.011 5.16856 149.557 4.78797 148.894 4.01451C148.636 3.74442 148.452 3.60937 148.341 3.59709C148.23 3.58481 147.936 3.86719 147.469 4.3951C147.17 4.7285 146.76 4.9422 146.315 4.99668C145.972 4.96135 145.642 4.84776 145.35 4.66469C145.059 4.48162 144.813 4.23396 144.632 3.94085C144.632 3.94085 144.387 3.70758 143.932 3.24106C144.091 3.02658 144.291 2.8464 144.521 2.71137C144.751 2.57634 145.006 2.48924 145.271 2.45532Z" fill="#009245"/>
<path d="M164.564 4.4812C164.564 4.4812 164.564 4.4812 164.638 4.55486V9.96905C164.638 11.6878 164.994 12.535 165.706 12.535V14.0696C165.422 14.1061 165.134 14.0662 164.87 13.9539C164.607 13.8417 164.378 13.6613 164.208 13.4312C164.08 14.9803 163.664 16.4919 162.98 17.8878C162.59 18.6764 162.071 19.3943 161.445 20.0117C160.503 20.991 159.217 21.5637 157.859 21.6077H157.625H157.564V21.5095C157.581 21.2636 157.508 21.0198 157.359 20.8234C157.21 20.627 156.995 20.4913 156.753 20.4414C155.631 20.3347 154.524 20.1084 153.45 19.7662C152.592 19.4304 151.786 18.9758 151.055 18.4157C150.265 17.7909 149.641 16.9814 149.238 16.0585C149.082 15.7285 148.978 15.3765 148.93 15.0149C149.095 15.3077 149.219 15.6216 149.299 15.948C149.678 16.7346 150.211 17.4368 150.867 18.0127C151.523 18.5885 152.289 19.0262 153.118 19.2996C154.116 19.6746 155.172 19.874 156.238 19.8889H156.729C158.476 19.8619 160.153 19.1983 161.445 18.0228C162.116 17.3834 162.65 16.615 163.017 15.7638C163.499 14.4794 163.692 13.1044 163.582 11.737V11.6019C163.582 9.40431 163.582 7.52592 163.582 5.979C163.717 5.78257 164.011 5.27921 164.466 4.4812H164.564Z" fill="#009245"/>
<path d="M167.094 3.49897V7.61179C167.094 9.30602 167.192 10.1531 167.389 10.1531C167.803 9.03727 168.428 8.01178 169.231 7.13298C169.72 6.5644 170.321 6.10376 170.998 5.78038C171.675 5.45699 172.411 5.27793 173.161 5.25459H173.517C174.866 5.32995 176.157 5.83307 177.201 6.69101C177.805 7.1859 178.334 7.76471 178.773 8.4098C179.24 9.01209 179.537 9.7286 179.633 10.4846C179.53 10.9793 179.334 11.4501 179.056 11.8719C175.938 12.1146 172.81 12.1802 169.685 12.0684C169.031 12.0842 168.377 12.0056 167.745 11.8351C167.805 11.9473 167.887 12.0464 167.986 12.1265C168.085 12.2066 168.2 12.2662 168.322 12.3016C169.285 12.514 170.273 12.5884 171.257 12.5226H179.756V14.0695H173.922H169.636C169.159 14.0286 168.694 13.9039 168.261 13.7012C167.939 13.5232 167.672 13.2613 167.489 12.9434C167.305 12.6255 167.211 12.2636 167.217 11.8965V11.6632L166.615 11.2212C166.615 11.2212 166.32 12.1666 165.792 14.0695H165.645V12.5349C165.945 11.272 166.093 9.97789 166.087 8.67989C166.087 6.88744 166.087 5.61062 166.087 4.86172C166.35 4.37628 166.663 3.91956 167.02 3.49897H167.094ZM167.917 10.3864C169.283 10.714 170.69 10.8381 172.092 10.7547H172.338C173.873 10.7547 175.924 10.6811 178.478 10.5583C178.185 9.84157 177.769 9.18111 177.25 8.60623C177.25 8.53257 177.017 8.2993 176.55 7.88188C175.547 7.02775 174.281 6.54253 172.964 6.50685C172.246 6.51077 171.537 6.67222 170.887 6.9798C170.238 7.28738 169.664 7.73361 169.206 8.28703C168.645 8.89743 168.208 9.61024 167.917 10.3864ZM169.845 0C170.048 0.181704 170.237 0.378716 170.41 0.5893C171.294 1.37503 171.736 1.89067 171.736 2.16077C171.707 2.4031 171.629 2.63699 171.507 2.8481C171.384 3.05921 171.22 3.24309 171.024 3.38847C170.495 2.77594 169.911 2.21295 169.28 1.70651C169.153 1.5576 169.076 1.37318 169.059 1.1786C169.386 0.392866 169.648 0 169.845 0Z" fill="#009245"/>
<path d="M179.706 12.5227H180.419C180.661 12.0683 180.796 11.5642 180.812 11.0494V10.8775C180.791 10.315 180.696 9.75775 180.529 9.22015C180.529 9.22015 180.689 8.67995 181.008 7.73462C181.155 7.97565 181.286 8.22579 181.401 8.48352C181.768 9.08841 182.223 9.63472 182.752 10.1041C183.966 11.0996 185.417 11.7637 186.964 12.0316C189.392 12.4929 191.864 12.6783 194.333 12.5841H194.48H200.08C199.862 13.0305 199.621 13.4649 199.356 13.8854C199.356 13.9591 199.294 14.0082 199.27 14.0082H195.831C189.281 14.0982 184.778 14.1392 182.322 14.131H179.756L179.706 12.5227ZM181.131 10.3987C181.083 10.9268 180.985 11.4489 180.836 11.9579C180.734 12.1368 180.652 12.3262 180.591 12.5227H183.599C182.971 12.2145 182.402 11.7991 181.917 11.295L181.131 10.3987Z" fill="#009245"/>
<path d="M57.7202 91.7097V92.9374H54.2202V91.7097H57.7202Z" fill="black"/>
<path d="M60.8519 91.7097V92.9374H57.315V91.7097H60.8519Z" fill="black"/>
<path d="M63.9467 91.7097V92.9374H60.4098V91.7097H63.9467Z" fill="black"/>
<path d="M67.0414 91.7097V92.9374H63.5168V91.7097H67.0414Z" fill="black"/>
<path d="M70.1485 91.7097V92.9374H66.6116V91.7097H70.1485Z" fill="black"/>
<path d="M73.2433 91.7097V92.9374H69.7064V91.7097H73.2433Z" fill="black"/>
<path d="M76.3381 91.7097V92.9374H72.8135V91.7097H76.3381Z" fill="black"/>
<path d="M79.4452 91.7097V92.9374H75.9083V91.7097H79.4452Z" fill="black"/>
<path d="M82.5399 91.7097V92.9374H79.0031V91.7097H82.5399Z" fill="black"/>
<path d="M85.6347 91.7097V92.9374H82.1101V91.7097H85.6347Z" fill="black"/>
<path d="M88.7418 91.7097V92.9374H85.2049V91.7097H88.7418Z" fill="black"/>
<path d="M91.8366 91.7097V92.9374H88.2997V91.7097H91.8366Z" fill="black"/>
<path d="M94.9314 91.7097V92.9374H91.4067V91.7097H94.9314Z" fill="black"/>
<path d="M98.0384 91.7097V92.9374H94.5629V91.7097H98.0384Z" fill="black"/>
<path d="M101.133 91.7097V92.9374H97.6086V91.7097H101.133Z" fill="black"/>
<path d="M104.24 91.7097V92.9374H100.703V91.7097H104.24Z" fill="black"/>
<path d="M107.335 91.7097V92.9374H103.798V91.7097H107.335Z" fill="black"/>
<path d="M110.43 91.7097V92.9374H106.905V91.7097H110.43Z" fill="black"/>
<path d="M113.537 91.7097V92.9374H110V91.7097H113.537Z" fill="black"/>
<path d="M116.669 91.7097V92.9374H113.095V91.7097H116.669Z" fill="black"/>
<path d="M119.727 91.7097V92.9374H116.202V91.7097H119.727Z" fill="black"/>
<path d="M122.809 91.7097V92.9374H119.297V91.7097H122.809Z" fill="black"/>
<path d="M126.272 92.078C126.273 92.2795 126.324 92.4777 126.42 92.655C126.515 92.8591 126.644 93.0458 126.8 93.2075C126.946 93.3599 127.122 93.481 127.316 93.5635C127.505 93.6501 127.711 93.6921 127.918 93.6863C128.117 93.6929 128.316 93.6508 128.495 93.5635C128.686 93.4811 128.861 93.3647 129.011 93.2198C129.16 93.0546 129.284 92.8684 129.379 92.6673C129.466 92.4784 129.512 92.2735 129.514 92.0657V88.3949C129.51 88.2259 129.543 88.058 129.611 87.9031C129.679 87.7482 129.78 87.6101 129.907 87.4987C130.005 87.395 130.122 87.3116 130.251 87.2531C130.446 87.1571 130.661 87.1107 130.878 87.1181V91.9553L130.755 92.8024C130.693 93.0649 130.594 93.3171 130.46 93.5513C130.337 93.7578 130.193 93.9511 130.03 94.1283C129.757 94.407 129.43 94.6279 129.069 94.7776C128.708 94.9274 128.321 95.003 127.93 95C127.51 95.0108 127.092 94.9356 126.702 94.779C126.335 94.6281 126.002 94.4071 125.72 94.1283C125.452 93.8573 125.242 93.5348 125.102 93.1802C124.963 92.8257 124.897 92.4465 124.909 92.0657V89.0947C125.105 89.1148 125.299 89.156 125.486 89.2175C125.624 89.28 125.749 89.3674 125.855 89.4753C125.98 89.5975 126.078 89.7451 126.141 89.9081C126.205 90.0712 126.233 90.2459 126.223 90.4206L126.272 92.078ZM127.132 85.9395C127.127 85.8267 127.146 85.7142 127.186 85.6087C127.226 85.5032 127.287 85.4069 127.365 85.3256C127.444 85.2432 127.54 85.1787 127.646 85.1363C127.752 85.0939 127.865 85.0748 127.979 85.0801C128.089 85.0767 128.199 85.0969 128.301 85.1392C128.402 85.1816 128.494 85.2451 128.569 85.3256C128.647 85.4069 128.708 85.5032 128.748 85.6087C128.788 85.7142 128.807 85.8267 128.802 85.9395C128.806 86.0503 128.787 86.1607 128.747 86.2641C128.707 86.3675 128.646 86.4617 128.569 86.5411C128.491 86.6175 128.399 86.6776 128.298 86.7177C128.196 86.7578 128.088 86.777 127.979 86.7743C127.867 86.7783 127.754 86.7596 127.649 86.7196C127.543 86.6795 127.447 86.6188 127.365 86.5411C127.288 86.4617 127.227 86.3675 127.187 86.2641C127.147 86.1607 127.128 86.0503 127.132 85.9395Z" fill="black"/>
<path d="M134.992 92.9742H132.204V84.9941C132.397 85.008 132.587 85.0494 132.769 85.1169C132.906 85.1758 133.03 85.259 133.137 85.3624C133.263 85.485 133.363 85.631 133.432 85.7921C133.495 85.9525 133.529 86.1231 133.53 86.2955V91.7097H134.992V92.9742Z" fill="black"/>
<path d="M134.304 92.9743V91.7466H135.888V90.0524C135.879 89.6598 135.952 89.2697 136.105 88.9078C136.257 88.5459 136.485 88.2205 136.772 87.953C137.03 87.6884 137.339 87.4795 137.681 87.3391C138.07 87.1787 138.489 87.1034 138.909 87.1182C139.306 87.1147 139.699 87.1941 140.064 87.3514C140.411 87.5133 140.734 87.7242 141.022 87.9776C141.294 88.2498 141.509 88.5735 141.654 88.9297C141.8 89.286 141.873 89.6676 141.869 90.0524C141.87 90.4425 141.799 90.8295 141.66 91.1941C141.521 91.5603 141.303 91.8914 141.022 92.164C140.747 92.422 140.426 92.6261 140.076 92.7656C139.684 92.9148 139.267 92.9857 138.848 92.9743H134.304ZM137.276 91.7466H138.848C139.064 91.7458 139.277 91.6998 139.474 91.6116C139.671 91.5251 139.853 91.4092 140.015 91.2678C140.137 91.0825 140.248 90.8898 140.346 90.6908C140.428 90.5008 140.47 90.296 140.469 90.0892C140.472 89.8742 140.431 89.6609 140.346 89.4631C140.262 89.2757 140.15 89.1018 140.015 88.9474C139.857 88.7892 139.669 88.664 139.462 88.5791C139.268 88.4948 139.059 88.4489 138.848 88.4441C138.646 88.4451 138.448 88.4957 138.271 88.5914C138.076 88.6753 137.898 88.7915 137.743 88.9352C137.615 89.1043 137.504 89.2852 137.411 89.4754C137.324 89.6685 137.278 89.8775 137.276 90.0892V91.7466Z" fill="black"/>
<path d="M143.232 85.4853C143.227 85.3742 143.245 85.2634 143.285 85.1597C143.325 85.056 143.386 84.9619 143.465 84.8833C143.544 84.8047 143.638 84.7434 143.742 84.7033C143.845 84.6632 143.956 84.6452 144.067 84.6504C144.178 84.6475 144.288 84.6666 144.392 84.7066C144.495 84.7466 144.589 84.8068 144.669 84.8837C144.747 84.9626 144.808 85.0568 144.848 85.1603C144.888 85.2637 144.907 85.3744 144.902 85.4853C144.907 85.598 144.889 85.7106 144.849 85.8161C144.808 85.9216 144.747 86.0179 144.669 86.0991C144.592 86.18 144.498 86.2436 144.394 86.2859C144.291 86.3282 144.179 86.3482 144.067 86.3447C143.955 86.3475 143.844 86.3271 143.741 86.2848C143.637 86.2426 143.543 86.1793 143.465 86.0991C143.312 85.932 143.228 85.7122 143.232 85.4853ZM143.343 88.3827C143.328 88.2222 143.358 88.0609 143.429 87.9161C143.509 87.7694 143.613 87.6368 143.736 87.5233C143.873 87.4111 144.021 87.3124 144.178 87.2286C144.34 87.1478 144.514 87.0939 144.694 87.069V93.6741C144.69 93.8304 144.657 93.9845 144.595 94.1283C144.527 94.2835 144.432 94.425 144.313 94.5458C144.185 94.6684 144.041 94.7718 143.883 94.8527C143.716 94.94 143.531 94.9903 143.343 95V88.3827Z" fill="black"/>
<path d="M148.464 93.6741C148.467 93.8482 148.429 94.0205 148.353 94.1774C148.29 94.3192 148.207 94.4514 148.108 94.5703C148.004 94.7002 147.869 94.8016 147.715 94.8649C147.528 94.9468 147.328 94.9926 147.125 95V90.0892C147.118 89.6961 147.198 89.3062 147.359 88.9474C147.512 88.5983 147.72 88.2753 147.973 87.9898C148.277 87.7377 148.616 87.531 148.98 87.3759C149.694 87.0972 150.488 87.0972 151.202 87.3759C151.561 87.534 151.895 87.7406 152.197 87.9898C152.454 88.2771 152.661 88.6048 152.811 88.9597C152.971 89.3146 153.05 89.7002 153.045 90.0892C153.047 90.4778 152.967 90.8627 152.811 91.2187C152.667 91.5803 152.459 91.9129 152.197 92.2008C151.896 92.4635 151.551 92.6713 151.178 92.8147C150.829 92.95 150.459 93.0207 150.085 93.0234H148.464V93.6741ZM150.097 91.7097C150.297 91.7072 150.494 91.6611 150.674 91.5747C150.856 91.4815 151.025 91.366 151.178 91.2309C151.323 91.0512 151.45 90.858 151.559 90.6539C151.661 90.4654 151.716 90.2546 151.718 90.0401C151.721 89.8302 151.671 89.6231 151.571 89.4385C151.466 89.2482 151.334 89.0745 151.178 88.9228C151.031 88.7703 150.861 88.6419 150.674 88.5423C150.494 88.4558 150.297 88.4098 150.097 88.4072C149.887 88.4002 149.678 88.4378 149.483 88.5177C149.298 88.6088 149.131 88.7337 148.992 88.886C148.839 89.0509 148.711 89.2369 148.611 89.4385C148.515 89.6244 148.464 89.8307 148.464 90.0401V91.7097H150.097Z" fill="black"/>
<path d="M157.294 92.9742H154.506V84.9941C154.699 85.008 154.889 85.0494 155.071 85.1169C155.208 85.1758 155.332 85.259 155.439 85.3624C155.565 85.485 155.665 85.631 155.734 85.7921C155.797 85.9525 155.831 86.1231 155.832 86.2955V91.7097H157.294V92.9742Z" fill="black"/>
<path d="M156.606 92.9743V91.7466H158.178V90.0524C158.175 89.6596 158.252 89.2703 158.407 88.909C158.561 88.5477 158.788 88.2222 159.075 87.953C159.332 87.6884 159.642 87.4795 159.983 87.3391C160.353 87.1871 160.75 87.1119 161.15 87.1182C161.547 87.1147 161.94 87.1941 162.304 87.3514C162.652 87.5133 162.975 87.7242 163.262 87.9776C163.534 88.2498 163.749 88.5735 163.895 88.9297C164.04 89.286 164.113 89.6676 164.11 90.0524C164.111 90.4425 164.04 90.8295 163.901 91.1941C163.762 91.5603 163.544 91.8914 163.262 92.164C162.988 92.422 162.667 92.6261 162.317 92.7656C161.925 92.9148 161.508 92.9857 161.089 92.9743H156.606ZM159.578 91.7466H161.15C161.366 91.7458 161.579 91.6998 161.776 91.6116C161.973 91.5251 162.155 91.4092 162.317 91.2678C162.44 91.0851 162.546 90.892 162.636 90.6908C162.727 90.5035 162.774 90.2975 162.771 90.0892C162.774 89.8742 162.733 89.6609 162.648 89.4631C162.564 89.2757 162.452 89.1018 162.317 88.9474C162.159 88.7892 161.971 88.664 161.764 88.5791C161.57 88.4948 161.362 88.4489 161.15 88.4441C160.948 88.4451 160.75 88.4957 160.573 88.5914C160.379 88.6753 160.2 88.7915 160.045 88.9352C159.917 89.1043 159.806 89.2852 159.713 89.4754C159.62 89.6665 159.574 89.8768 159.578 90.0892V91.7466Z" fill="black"/>
<path d="M166.775 92.9743C166.57 92.9682 166.367 92.9309 166.173 92.8638C166.018 92.819 165.875 92.7392 165.755 92.6306C165.651 92.5124 165.564 92.3802 165.497 92.2377C165.431 92.0741 165.397 91.8988 165.399 91.7221V85.0188C165.607 85.0276 165.813 85.0605 166.013 85.117C166.164 85.1639 166.302 85.2436 166.419 85.3503C166.542 85.4736 166.637 85.6216 166.698 85.7846C166.76 85.9476 166.786 86.1218 166.775 86.2956V92.9743Z" fill="black"/>
<path d="M171.454 91.7097V92.9374H167.929V91.7097H171.454Z" fill="black"/>
<path d="M174.561 91.7097V92.9374H171.024V91.7097H174.561Z" fill="black"/>
<path d="M177.656 91.7097V92.9374H174.119V91.7097H177.656Z" fill="black"/>
<path d="M180.75 91.7097V92.9374H177.226V91.7097H180.75Z" fill="black"/>
<path d="M183.342 88.3949C183.331 88.2298 183.354 88.0642 183.408 87.9081C183.463 87.752 183.549 87.6085 183.661 87.4864C183.78 87.3809 183.917 87.2977 184.066 87.2409C184.274 87.1578 184.494 87.1081 184.717 87.0936V90.0401C184.729 90.4614 184.649 90.8802 184.484 91.2678C184.338 91.6331 184.111 91.9606 183.821 92.2254C183.549 92.4915 183.226 92.6995 182.871 92.8367C182.516 92.9739 182.137 93.0374 181.757 93.0234H180.357V91.7957H181.757C181.956 91.7915 182.152 91.7499 182.335 91.6729C182.526 91.5905 182.701 91.474 182.85 91.3291C183.012 91.1622 183.141 90.9665 183.231 90.7521C183.309 90.5569 183.346 90.3482 183.342 90.1383V88.3949ZM183.182 85.4607C183.172 85.235 183.251 85.0145 183.403 84.8469C183.481 84.772 183.574 84.7138 183.675 84.6758C183.776 84.6378 183.884 84.6208 183.992 84.6259C184.225 84.6184 184.453 84.6971 184.631 84.8469C184.715 84.9247 184.78 85.0201 184.823 85.1262C184.865 85.2324 184.884 85.3466 184.877 85.4607C184.881 85.5745 184.862 85.688 184.819 85.7938C184.777 85.8996 184.713 85.9953 184.631 86.0746C184.459 86.2376 184.229 86.3259 183.992 86.3201C183.882 86.3235 183.773 86.3033 183.671 86.261C183.57 86.2186 183.478 86.1551 183.403 86.0746C183.258 85.9081 183.179 85.6939 183.182 85.473V85.4607Z" fill="black"/>
<path d="M189.015 92.9742H186.215V84.9941C186.409 85.008 186.599 85.0494 186.78 85.1169C186.919 85.1721 187.044 85.2558 187.149 85.3624C187.274 85.485 187.374 85.631 187.443 85.7921C187.507 85.9525 187.54 86.1231 187.542 86.2955V91.7097H189.015V92.9742Z" fill="black"/>
<path d="M188.315 92.9743V91.7465H189.9V90.0523C189.89 89.6597 189.964 89.2696 190.116 88.9077C190.269 88.5458 190.496 88.2204 190.784 87.9529C191.044 87.6909 191.352 87.4824 191.693 87.3391C192.05 87.2102 192.43 87.1518 192.81 87.1672C193.207 87.1637 193.6 87.2432 193.965 87.4005C194.312 87.5624 194.635 87.7732 194.922 88.0266C195.194 88.2989 195.409 88.6225 195.555 88.9788C195.7 89.335 195.773 89.7167 195.77 90.1014C195.771 90.4916 195.7 90.8785 195.561 91.2432C195.427 91.6118 195.208 91.944 194.922 92.2131C194.65 92.4737 194.328 92.6781 193.977 92.8146C193.585 92.9638 193.168 93.0347 192.749 93.0234L188.315 92.9743ZM191.287 91.7465H192.81C193.026 91.7457 193.239 91.6997 193.436 91.6115C193.633 91.525 193.815 91.4091 193.977 91.2677C194.099 91.0824 194.21 90.8897 194.308 90.6907C194.394 90.5015 194.44 90.2968 194.443 90.0891C194.443 89.8733 194.397 89.66 194.308 89.463C194.224 89.2756 194.112 89.1018 193.977 88.9474C193.819 88.7891 193.631 88.6639 193.424 88.5791C193.234 88.4777 193.025 88.4151 192.81 88.3949C192.609 88.3959 192.41 88.4465 192.233 88.5422C192.039 88.6261 191.86 88.7423 191.705 88.886C191.577 89.0551 191.466 89.236 191.373 89.4262C191.286 89.6193 191.24 89.8283 191.238 90.04L191.287 91.7465Z" fill="black"/>
<path d="M199.663 88.4686C199.486 88.4734 199.31 88.4399 199.147 88.3704C198.972 88.2997 198.81 88.2001 198.668 88.0757C198.592 87.9738 198.53 87.8624 198.484 87.7442C198.421 87.5413 198.388 87.3305 198.386 87.1181H201.296C201.692 87.1155 202.084 87.1906 202.451 87.3391C202.799 87.4807 203.116 87.6893 203.384 87.9529C203.657 88.2275 203.874 88.5528 204.023 88.9106C204.166 89.2782 204.237 89.6701 204.231 90.0646C204.238 90.4832 204.167 90.8994 204.023 91.2923C203.879 91.6592 203.657 91.9902 203.372 92.2622C203.116 92.5258 202.8 92.7238 202.451 92.8392C202.056 92.9738 201.64 93.0362 201.223 93.0234H197.428C197.445 92.6711 197.594 92.3383 197.845 92.0903C198.086 91.8769 198.396 91.759 198.717 91.7588H201.173C201.377 91.755 201.578 91.7091 201.763 91.6238C201.964 91.5242 202.151 91.396 202.316 91.2432C202.477 91.0891 202.614 90.911 202.721 90.7153C202.81 90.5273 202.856 90.3218 202.856 90.1137C202.856 89.911 202.814 89.7104 202.733 89.5244C202.642 89.3324 202.512 89.1611 202.352 89.0211C202.182 88.8674 201.987 88.7429 201.775 88.6527C201.59 88.5675 201.389 88.5215 201.186 88.5177L199.663 88.4686Z" fill="black"/>
<path d="M208.567 92.9742H205.779V84.9941C205.972 85.008 206.162 85.0494 206.344 85.1169C206.482 85.1721 206.608 85.2558 206.712 85.3624C206.838 85.485 206.938 85.631 207.007 85.7921C207.07 85.9525 207.103 86.1231 207.105 86.2955V91.7097H208.567V92.9742Z" fill="black"/>
<path d="M212.73 91.7097V90.1014C212.738 89.89 212.696 89.6796 212.607 89.4876C212.519 89.2898 212.394 89.1107 212.239 88.9597C212.086 88.8058 211.907 88.681 211.71 88.5914C211.516 88.5083 211.307 88.4665 211.096 88.4686H210.544C210.396 88.477 210.248 88.4474 210.114 88.3826C209.976 88.3107 209.851 88.2151 209.745 88.1003C209.635 87.9802 209.544 87.8435 209.475 87.6951C209.403 87.5323 209.361 87.3575 209.353 87.1795H211.096C211.477 87.1665 211.855 87.2422 212.202 87.4005C212.555 87.5565 212.88 87.7725 213.16 88.0389C213.437 88.3131 213.666 88.6328 213.835 88.9842C213.995 89.3342 214.071 89.7168 214.056 90.1014V91.0713C214.056 91.0713 214.056 91.1573 214.056 91.1941V92.9743H207.916V91.7466L212.73 91.7097ZM210.544 85.4852C210.539 85.3743 210.558 85.2637 210.598 85.1602C210.638 85.0568 210.699 84.9626 210.777 84.8837C210.944 84.73 211.164 84.6464 211.391 84.6504C211.61 84.649 211.822 84.7326 211.981 84.8837C212.059 84.9626 212.12 85.0568 212.16 85.1602C212.2 85.2637 212.218 85.3743 212.214 85.4852C212.219 85.598 212.2 85.7106 212.16 85.8161C212.12 85.9216 212.059 86.0179 211.981 86.0991C211.904 86.1778 211.812 86.2401 211.711 86.2824C211.61 86.3246 211.501 86.3458 211.391 86.3446C211.278 86.347 211.165 86.3264 211.059 86.2842C210.954 86.242 210.858 86.1791 210.777 86.0991C210.699 86.0179 210.638 85.9216 210.598 85.8161C210.557 85.7106 210.539 85.598 210.544 85.4852Z" fill="black"/>
<path d="M253.22 36.1929C253.264 36.058 253.289 35.9174 253.294 35.7754C253.294 35.6895 253.294 35.6036 253.294 35.4931C253.286 35.4071 253.261 35.3235 253.22 35.2475L253.158 35.1861L252.901 35.1248H252.63C252.479 35.1371 252.33 35.1702 252.188 35.223C252.06 35.273 251.943 35.3481 251.844 35.444C251.752 35.5553 251.685 35.6851 251.648 35.8245C251.603 35.9765 251.574 36.1329 251.562 36.2911C251.572 36.4295 251.6 36.5658 251.648 36.6962C251.701 36.8258 251.78 36.9429 251.881 37.04L252.274 37.396L253.048 36.5735C253.131 36.4596 253.189 36.3301 253.22 36.1929Z" fill="#003E8A"/>
<path d="M254.841 37.7642C254.878 37.6276 254.903 37.4879 254.915 37.3467C254.898 37.1951 254.861 37.0464 254.804 36.9048C254.75 36.7693 254.666 36.6477 254.559 36.5487L254.166 36.1804C254.119 36.3732 254.057 36.562 253.981 36.7452C253.912 36.9101 253.812 37.0602 253.687 37.1871L252.901 38.0097L253.048 38.1448C253.154 38.2459 253.279 38.3252 253.416 38.378C253.551 38.4255 253.691 38.4544 253.834 38.464C253.98 38.4344 254.124 38.3934 254.264 38.3412C254.399 38.2976 254.521 38.2217 254.62 38.1202C254.713 38.0151 254.788 37.8946 254.841 37.7642Z" fill="#003E8A"/>
<path d="M246.011 18.6734C246.012 18.8248 246.041 18.9746 246.097 19.1154C246.148 19.2458 246.228 19.3633 246.33 19.4591L247.116 20.208L247.902 19.3855C247.999 19.278 248.074 19.1529 248.123 19.0172C248.174 18.8838 248.199 18.7423 248.197 18.5997C248.2 18.3863 248.137 18.1772 248.016 18.0012C247.895 17.8253 247.722 17.6913 247.522 17.6176C247.379 17.5923 247.234 17.5923 247.092 17.6176C246.944 17.6202 246.799 17.6493 246.662 17.7035C246.529 17.7577 246.408 17.8369 246.306 17.9368C246.207 18.0447 246.128 18.1694 246.072 18.3051C246.033 18.424 246.013 18.5482 246.011 18.6734Z" fill="#003E8A"/>
<path d="M259.852 41.4965C259.744 41.4 259.619 41.325 259.483 41.2755C259.342 41.2241 259.192 41.1991 259.041 41.2019C258.901 41.2258 258.765 41.2671 258.636 41.3246C258.508 41.3748 258.395 41.4548 258.304 41.5579C258.197 41.6643 258.117 41.7948 258.071 41.9385C258.023 42.0744 257.986 42.214 257.96 42.3559C257.972 42.5044 258.01 42.6498 258.071 42.7856C258.127 42.9166 258.211 43.0339 258.316 43.1294L259.102 43.8783L259.876 43.0557C259.972 42.957 260.047 42.8401 260.097 42.7119C260.145 42.5774 260.174 42.4369 260.183 42.2945C260.155 42.1452 260.118 41.9976 260.073 41.8526C260.032 41.7163 259.956 41.5934 259.852 41.4965Z" fill="#003E8A"/>
<path d="M313.63 59.679C307.98 50.1151 300.121 43.3873 288.908 40.9073C283.112 39.8246 277.701 37.2425 273.213 33.4183C268.964 29.6124 266.361 24.7016 263.634 19.8276C261.615 16.0096 259.286 12.3634 256.671 8.92555C252.213 3.31492 245.802 1.22782 238.851 0.540305C235.646 0.221102 235.646 0.221101 234.369 3.20443C230.684 11.5897 227.148 19.9872 223.512 28.3847C223.203 29.0734 222.829 29.7311 222.395 30.349C221.167 32.1415 219.939 33.8848 218.711 35.665L212.877 44.3572C212.816 44.48 212.718 44.5659 212.656 44.7009C212.195 45.6604 212.129 46.7625 212.472 47.7702C212.646 48.2605 212.926 48.7068 213.29 49.0779C213.655 49.449 214.097 49.736 214.584 49.9187C214.726 49.9627 214.869 49.9996 215.014 50.0292H215.235C216.065 50.2993 216.959 50.2993 217.79 50.0292C218.295 49.8501 218.756 49.566 219.144 49.1956C219.531 48.8253 219.835 48.3772 220.037 47.8807C220.338 47.1671 220.407 46.3766 220.233 45.6217C220.393 43.7802 220.405 41.9386 221.67 40.318C222.185 39.3995 222.518 38.391 222.653 37.347C222.865 36.6942 222.94 36.0045 222.874 35.3213C222.745 34.6195 222.894 33.8953 223.287 33.3003C223.681 32.7053 224.29 32.2856 224.986 32.1292C230.525 30.791 236.199 30.7787 240.632 34.7811C244.076 38.0205 247.145 41.6362 249.781 45.5603C256.266 54.7927 264.825 58.5986 275.989 56.8061C277.91 56.4434 279.892 56.5743 281.748 57.1867C285.531 58.6968 289.117 60.698 292.801 62.5273C293.407 62.8732 293.99 63.2587 294.545 63.6813L296.682 65.1546C293.845 59.4089 290.063 55.5416 284.512 53.7983C281.405 52.8284 278.15 52.3127 274.957 51.6129C273.555 51.3078 272.236 50.7018 271.091 49.837C269.946 48.9721 269.002 47.869 268.325 46.6039C271.592 47.6229 274.724 49.1452 277.954 49.4399C282.185 49.6595 286.426 49.5486 290.64 49.1084C294.324 48.8752 298.008 49.2557 300.919 51.6989C303.729 53.9598 306.308 56.493 308.619 59.2616C312.402 63.9882 315.779 69.0832 319.377 73.9081C320.298 75.1358 321.404 76.3635 322.411 77.493L323 77.1124C319.893 71.2808 316.982 65.351 313.63 59.679ZM254.387 20.9325C254.434 21.0236 254.459 21.1245 254.46 21.2272C254.483 21.3406 254.483 21.4575 254.46 21.5709C254.414 21.6805 254.347 21.7804 254.264 21.8656L251.685 24.5543L252.115 24.9594L253.859 26.6045L255.443 28.0287L256.916 29.4651L256.327 30.0912L254.583 28.4461L253.048 27.0097L251.82 25.8434L250.444 24.5543L254.129 20.6133C254.231 20.7056 254.318 20.8133 254.387 20.9325ZM252.078 30.8279C252.081 30.9028 252.068 30.9775 252.041 31.0472C252.013 31.117 251.971 31.1802 251.918 31.233C251.867 31.2912 251.805 31.3386 251.735 31.3724C251.666 31.4061 251.59 31.4255 251.513 31.4294C251.436 31.4368 251.358 31.4262 251.285 31.3985C251.213 31.3708 251.148 31.3268 251.095 31.2698C251.037 31.2198 250.99 31.1576 250.958 31.0876C250.927 31.0176 250.91 30.9415 250.911 30.8647C250.909 30.7869 250.923 30.7095 250.953 30.6376C250.982 30.5657 251.027 30.5008 251.083 30.4473C251.131 30.3899 251.191 30.3437 251.259 30.3118C251.327 30.28 251.401 30.2634 251.476 30.2631C251.627 30.2708 251.77 30.3318 251.88 30.4352C251.991 30.5386 252.061 30.6778 252.078 30.8279ZM252.459 19.4224C252.505 19.3649 252.562 19.3177 252.628 19.2839C252.694 19.2501 252.766 19.2303 252.839 19.226C252.915 19.2254 252.99 19.2403 253.06 19.2699C253.129 19.2994 253.192 19.343 253.245 19.3979C253.365 19.5003 253.44 19.6458 253.453 19.803C253.46 19.8783 253.449 19.954 253.421 20.0243C253.393 20.0945 253.35 20.1575 253.294 20.2082C253.185 20.3254 253.036 20.3959 252.876 20.4046C252.714 20.4023 252.56 20.3361 252.446 20.2205C252.39 20.1717 252.346 20.1112 252.316 20.0432C252.287 19.9753 252.272 19.9017 252.274 19.8276C252.276 19.7511 252.293 19.6758 252.325 19.6061C252.356 19.5365 252.402 19.474 252.459 19.4224ZM247.804 16.7583C248.05 16.8588 248.275 17.0046 248.467 17.188C248.662 17.366 248.817 17.5837 248.922 17.8264C249.021 18.0609 249.083 18.3094 249.106 18.5631C249.134 18.8301 249.096 19.0999 248.995 19.3488C248.898 19.5964 248.752 19.8219 248.565 20.0117L247.792 20.8343L248.258 21.2886L248.836 21.8288C248.933 21.9235 249.051 21.9948 249.18 22.0375C249.313 22.0879 249.455 22.1128 249.597 22.1111C249.749 22.1028 249.898 22.0696 250.039 22.0129C250.167 21.9462 250.283 21.8591 250.383 21.7551L251.157 20.9448C251.303 20.7751 251.51 20.6693 251.734 20.6502C251.844 20.6466 251.953 20.6676 252.053 20.7115C252.194 20.7715 252.326 20.8499 252.446 20.9448L251.058 22.4058C250.877 22.6027 250.655 22.7577 250.408 22.86C250.165 22.972 249.901 23.0306 249.634 23.0319C249.376 23.0349 249.119 22.9853 248.881 22.8861C248.642 22.7869 248.426 22.6402 248.246 22.4549L247.558 21.8042L247.19 21.4604L246.232 22.4794C246.137 22.3852 246.061 22.2724 246.011 22.148C245.96 22.0446 245.931 21.9317 245.925 21.8165C245.928 21.5826 246.021 21.3587 246.183 21.1903L246.527 20.8343L245.741 20.0854C245.542 19.9048 245.38 19.6881 245.262 19.447C245.154 19.2166 245.099 18.9648 245.102 18.7104C245.086 18.4427 245.128 18.1746 245.225 17.9246C245.319 17.6718 245.466 17.4417 245.655 17.2494C245.835 17.0585 246.047 16.9006 246.281 16.7829C246.77 16.5862 247.316 16.5862 247.804 16.7829V16.7583ZM249.523 27.734C249.446 27.7962 249.359 27.8459 249.265 27.8813C249.193 27.8973 249.117 27.8973 249.044 27.8813H248.823C248.74 27.8549 248.664 27.8086 248.602 27.7463L247.313 26.5186L246.49 25.7329H246.809C246.994 25.7323 247.177 25.7656 247.35 25.8311C247.528 25.9007 247.691 26.0051 247.829 26.138L249.523 27.734ZM245.286 13.0015C245.386 12.8868 245.528 12.8162 245.679 12.8051C245.757 12.8028 245.835 12.8168 245.907 12.8465C245.979 12.8761 246.043 12.9206 246.097 12.977C246.154 13.0252 246.201 13.0853 246.232 13.1531C246.264 13.221 246.281 13.2949 246.281 13.3699C246.273 13.5207 246.212 13.664 246.109 13.7741C246.006 13.8843 245.866 13.9542 245.716 13.9714C245.566 13.9719 245.421 13.9148 245.311 13.8118C245.253 13.7609 245.205 13.6988 245.172 13.6292C245.138 13.5596 245.118 13.4839 245.115 13.4067C245.12 13.2622 245.182 13.1256 245.286 13.0261V13.0015ZM241.32 15.0273L242.707 13.5663C242.801 13.6625 242.876 13.7748 242.929 13.8978C242.976 13.9888 243.001 14.0898 243.002 14.1924C243.003 14.3115 242.979 14.4295 242.932 14.5392C242.886 14.6489 242.818 14.7481 242.732 14.8308L241.958 15.6534C241.865 15.7493 241.797 15.8677 241.762 15.9971C241.713 16.1435 241.688 16.297 241.688 16.4514C241.697 16.5939 241.726 16.7345 241.774 16.8688C241.829 17.0007 241.913 17.1183 242.02 17.2126C242.114 17.3117 242.232 17.3838 242.364 17.4213C242.497 17.4725 242.639 17.4976 242.781 17.4949C242.928 17.4812 243.073 17.4482 243.211 17.3967C243.339 17.3409 243.456 17.2618 243.555 17.1635L245.274 15.3465C245.352 15.2625 245.448 15.196 245.554 15.1516C245.659 15.1071 245.773 15.0857 245.888 15.0886C245.986 15.0728 246.085 15.0728 246.183 15.0886C246.32 15.1356 246.445 15.2109 246.551 15.3096L244.292 17.765L243.837 18.1211C243.681 18.2214 243.512 18.2999 243.334 18.3543C243.178 18.3997 243.017 18.4285 242.855 18.4403C242.588 18.4513 242.323 18.408 242.073 18.313C241.824 18.218 241.597 18.0734 241.406 17.8878C241.214 17.6991 241.056 17.479 240.939 17.2371C240.826 16.9907 240.767 16.7226 240.767 16.4514C240.762 16.1932 240.808 15.9365 240.903 15.6962C240.998 15.456 241.14 15.2369 241.32 15.0518V15.0273ZM224.126 30.4227C228.204 20.8711 232.109 11.8352 236.223 2.28365C237.906 14.2784 232.883 22.86 224.077 30.4473L224.126 30.4227ZM253.109 39.2868C252.866 39.1768 252.646 39.0228 252.459 38.8325L248.946 35.5054L246.846 33.406L241.062 27.9305L240.951 27.8322C240.811 27.6627 240.692 27.4773 240.595 27.2798C240.5 27.039 240.434 26.7875 240.399 26.5309C240.397 26.2806 240.452 26.0331 240.558 25.8065C240.662 25.563 240.812 25.342 241 25.1558L241.762 24.3456L241.136 23.7563C241.053 23.6702 240.952 23.6031 240.841 23.5598C240.732 23.5342 240.618 23.5342 240.509 23.5598C240.399 23.561 240.29 23.5844 240.188 23.6287C240.087 23.673 239.996 23.7373 239.92 23.8176L239.441 24.321C239.293 24.4709 239.118 24.5917 238.925 24.677C238.739 24.7588 238.538 24.8006 238.336 24.7998C238.126 24.8034 237.917 24.7658 237.721 24.6893C237.531 24.6174 237.359 24.5042 237.218 24.3578L236.309 23.5107C236.126 23.3319 235.98 23.1193 235.879 22.8846C235.778 22.6605 235.724 22.4182 235.72 22.1725C235.704 21.8968 235.746 21.621 235.842 21.3622C235.934 21.1108 236.076 20.8809 236.26 20.687L237.635 19.226C237.727 19.3324 237.802 19.4525 237.857 19.582C237.891 19.6858 237.916 19.7927 237.93 19.9013C237.949 20.0068 237.949 20.1149 237.93 20.2205C237.887 20.3318 237.82 20.4323 237.734 20.5151L236.972 21.3254C236.878 21.4307 236.811 21.557 236.776 21.6937C236.727 21.8412 236.694 21.9935 236.678 22.148C236.687 22.2864 236.716 22.4227 236.764 22.5531C236.804 22.673 236.871 22.7822 236.96 22.8723L237.721 23.5967C237.887 23.7548 238.107 23.8428 238.336 23.8422C238.457 23.8184 238.576 23.7856 238.692 23.744C238.787 23.6969 238.874 23.6348 238.95 23.5598L239.429 23.0565C239.563 22.91 239.726 22.793 239.907 22.7127C240.091 22.622 240.293 22.5758 240.497 22.5777C240.701 22.5793 240.904 22.6124 241.099 22.6759C241.307 22.7463 241.496 22.8639 241.651 23.0196L242.462 23.7808C242.543 23.8607 242.606 23.957 242.646 24.0632C242.664 24.1647 242.664 24.2686 242.646 24.3701C242.656 24.4853 242.641 24.6013 242.601 24.7097C242.56 24.818 242.496 24.9159 242.413 24.9962L241.651 25.7942C241.555 25.9018 241.48 26.0268 241.43 26.1626C241.393 26.2999 241.365 26.4392 241.344 26.58L241.639 27.3412L245.606 31.0979C245.711 31.1888 245.831 31.2595 245.962 31.3067C246.109 31.3551 246.262 31.3799 246.416 31.3803C246.569 31.3698 246.719 31.3324 246.858 31.2698C246.994 31.2147 247.119 31.1357 247.227 31.0366L244.206 28.1637L244.058 28.0287C244.01 27.9859 243.969 27.9363 243.936 27.8813H243.862L243.776 27.7095C243.706 27.5516 243.653 27.387 243.616 27.2184C243.616 27.0465 243.518 26.8624 243.481 26.6905V26.5677C243.481 26.5677 243.481 26.5063 243.481 26.494C243.469 26.4582 243.469 26.4194 243.481 26.3835C243.67 26.1971 243.885 26.0399 244.12 25.917C244.371 25.8002 244.642 25.7335 244.918 25.7206C245.178 25.7154 245.437 25.7613 245.679 25.8556C245.932 25.9571 246.161 26.1073 246.355 26.2976L248.872 28.6794C248.767 28.7755 248.641 28.8468 248.504 28.8881C248.402 28.9251 248.294 28.9458 248.185 28.9495H247.878C247.753 28.9196 247.641 28.8508 247.558 28.753L245.618 26.715C245.516 26.6201 245.395 26.5488 245.262 26.5063C245.109 26.4689 244.953 26.4443 244.795 26.4327L244.071 26.7519L248.455 30.9015L247.829 31.5645C247.697 31.7104 247.544 31.8347 247.374 31.9328C247.183 32.045 246.976 32.1277 246.76 32.1783L247.558 32.9395L248.234 33.5902L249.867 31.9205C249.938 31.8405 250.026 31.7776 250.125 31.7364C250.224 31.6987 250.327 31.6739 250.432 31.6627C250.542 31.6506 250.654 31.6506 250.764 31.6627C250.898 31.7014 251.021 31.7731 251.12 31.8714L248.885 34.2286L249.265 34.5969L250.629 35.8246C250.664 35.6234 250.731 35.4288 250.825 35.2476C250.907 35.0728 251.015 34.9114 251.144 34.7688C251.269 34.637 251.409 34.5215 251.562 34.425C251.737 34.3335 251.923 34.2634 252.115 34.2163C252.038 34.1427 251.975 34.0553 251.93 33.9585C251.893 33.864 251.868 33.7649 251.857 33.6639C251.861 33.5616 251.886 33.4612 251.93 33.3692C252 33.2423 252.082 33.123 252.176 33.0132L255.185 35.8615C255.384 36.0435 255.543 36.2652 255.652 36.5121C255.74 36.7492 255.798 36.9968 255.823 37.2488C255.831 37.513 255.785 37.776 255.688 38.0222C255.585 38.2658 255.435 38.4868 255.246 38.6729C255.062 38.8706 254.846 39.0365 254.608 39.164C254.369 39.2755 254.11 39.3381 253.846 39.3481C253.599 39.3791 253.348 39.3582 253.109 39.2868ZM260.539 43.7556L259.127 45.1306L255.615 41.8158L255.431 41.644L255.099 41.9877C255.021 42.0771 254.925 42.1483 254.816 42.1964C254.722 42.2453 254.616 42.2706 254.509 42.2701C254.4 42.288 254.288 42.288 254.178 42.2701C254.058 42.2225 253.946 42.1562 253.846 42.0737L256.929 38.8079C257.047 38.6604 257.211 38.5567 257.395 38.5133C257.528 38.5207 257.66 38.5413 257.788 38.5747C257.935 38.6184 258.073 38.6891 258.194 38.7834L256.032 41.0669L256.413 41.4352L257.052 42.0245C257.08 41.8192 257.142 41.62 257.236 41.4352C257.327 41.2676 257.443 41.1145 257.58 40.981C257.753 40.7809 257.969 40.6212 258.21 40.5131C258.452 40.4049 258.715 40.3509 258.98 40.3549C259.235 40.3607 259.488 40.4062 259.729 40.4899C259.979 40.5896 260.208 40.7353 260.404 40.9196C260.592 41.1087 260.746 41.3288 260.859 41.5703C260.964 41.8015 261.019 42.0528 261.018 42.3069C261.034 42.5583 261 42.8104 260.918 43.0486C260.836 43.2867 260.707 43.5062 260.539 43.6942V43.7556ZM261.583 40.4776C261.533 40.536 261.471 40.5827 261.401 40.6145C261.331 40.6463 261.255 40.6624 261.178 40.6618C261.106 40.6687 261.033 40.659 260.964 40.6335C260.896 40.6079 260.835 40.5672 260.785 40.5145C260.727 40.4627 260.681 40.3992 260.649 40.3284C260.618 40.2575 260.601 40.1808 260.601 40.1032C260.601 40.0256 260.618 39.9488 260.649 39.878C260.681 39.8071 260.727 39.7437 260.785 39.6919C260.835 39.6336 260.897 39.5869 260.967 39.555C261.037 39.5232 261.113 39.5071 261.19 39.5077C261.342 39.5118 261.487 39.5732 261.596 39.6796C261.705 39.7824 261.771 39.9229 261.78 40.0725C261.759 40.2074 261.689 40.3299 261.583 40.4162V40.4776ZM267.318 36.5121L266.692 37.1751C266.503 37.38 266.273 37.5431 266.017 37.6539C265.759 37.7662 265.486 37.8406 265.206 37.8749H264.862L264.567 37.8012C264.443 37.7429 264.323 37.673 264.211 37.5925C264.085 37.5237 263.969 37.4368 263.867 37.3347L259.888 33.5656L258.292 31.9205L256.548 30.3245L257.138 29.6984L258.673 31.1471L260.146 32.5344L264.396 36.5612C264.501 36.6602 264.627 36.7356 264.764 36.7822C264.927 36.829 265.098 36.8457 265.268 36.8313C265.413 36.8103 265.557 36.7775 265.697 36.7331C265.842 36.6866 265.976 36.6114 266.09 36.5121L263.057 33.627L262.897 33.4797C262.853 33.441 262.816 33.3954 262.787 33.3447H262.725C262.723 33.3161 262.723 33.2873 262.725 33.2587C262.7 33.2246 262.68 33.1875 262.664 33.1482C262.578 32.9846 262.513 32.8116 262.467 32.6326L262.357 32.1047V31.9205V31.8591C262.547 31.6669 262.772 31.5127 263.02 31.4049C263.278 31.2814 263.557 31.2064 263.843 31.1839C264.092 31.1783 264.34 31.2286 264.567 31.3312C264.821 31.4415 265.054 31.5952 265.255 31.7855L267.711 34.1549C267.611 34.2487 267.495 34.3235 267.368 34.3759C267.274 34.392 267.179 34.392 267.085 34.3759C266.967 34.3887 266.847 34.3887 266.729 34.3759C266.606 34.3392 266.493 34.2764 266.397 34.1918L264.58 32.4607C264.467 32.3531 264.333 32.2696 264.187 32.2152C264.037 32.1822 263.882 32.1822 263.732 32.2152C263.593 32.1984 263.452 32.2141 263.32 32.261C263.188 32.3078 263.068 32.3846 262.971 32.4853L267.318 36.5121Z" fill="#003E8A"/>
<path d="M116.84 86.7253C116.842 86.6027 116.817 86.4811 116.767 86.3693C116.713 86.2599 116.647 86.157 116.57 86.0624C116.479 85.9776 116.376 85.9073 116.263 85.8537C116.147 85.8008 116.022 85.7716 115.895 85.7677H115.6C115.507 85.7853 115.411 85.7853 115.318 85.7677L115.084 85.6204C115.018 85.5575 114.963 85.4825 114.925 85.3994C114.902 85.29 114.902 85.1773 114.925 85.0679H115.956C116.184 85.0662 116.41 85.1122 116.619 85.203C116.822 85.2845 117.009 85.4009 117.172 85.5467C117.338 85.7006 117.468 85.8892 117.553 86.0992C117.646 86.312 117.692 86.5423 117.688 86.7744V87.7075H118.302V88.395H115.846C115.724 88.3914 115.604 88.4257 115.502 88.4932C115.382 88.5567 115.27 88.6351 115.17 88.7265C115.078 88.8095 115.006 88.9122 114.959 89.027C114.912 89.1418 114.892 89.2657 114.9 89.3894V89.6841C114.922 89.7811 114.922 89.8817 114.9 89.9787C114.871 90.0622 114.824 90.1382 114.762 90.2018C114.701 90.2654 114.626 90.3149 114.544 90.3471C114.429 90.385 114.309 90.4057 114.188 90.4084V89.3894C114.183 89.1601 114.226 88.9322 114.315 88.7206C114.404 88.5091 114.536 88.3187 114.704 88.1617C114.855 88.001 115.039 87.8753 115.244 87.7934C115.452 87.7162 115.673 87.6747 115.895 87.6707H116.939L116.84 86.7253ZM115.612 89.5982C115.606 89.4644 115.65 89.3332 115.735 89.2298C115.78 89.1799 115.835 89.14 115.896 89.1127C115.958 89.0853 116.024 89.0712 116.091 89.0712C116.158 89.0712 116.225 89.0853 116.286 89.1127C116.348 89.14 116.403 89.1799 116.447 89.2298C116.512 89.2737 116.566 89.332 116.604 89.4002C116.643 89.4684 116.665 89.5446 116.669 89.6227C116.671 89.6873 116.658 89.7516 116.633 89.8109C116.608 89.8703 116.569 89.9234 116.521 89.9665C116.455 90.0402 116.368 90.0917 116.271 90.1138C116.175 90.1358 116.074 90.1275 115.982 90.0898C115.89 90.0521 115.813 89.9869 115.76 89.9033C115.707 89.8196 115.681 89.7216 115.686 89.6227L115.612 89.5982Z" fill="black"/>
<path d="M117.958 88.3949V87.6583H118.707C118.616 87.5032 118.542 87.3385 118.486 87.1672C118.437 87.0124 118.412 86.8509 118.412 86.6884C118.407 86.4613 118.449 86.2355 118.535 86.0254C118.623 85.8134 118.752 85.6212 118.916 85.4607C119.078 85.3113 119.265 85.1908 119.469 85.1047C119.683 85.0171 119.913 84.9752 120.144 84.9819H121.2C121.193 85.0955 121.168 85.2073 121.127 85.3134C121.086 85.3953 121.032 85.4699 120.967 85.5343C120.903 85.5971 120.828 85.6471 120.746 85.6817C120.645 85.7025 120.54 85.7025 120.439 85.6817H120.144C120.021 85.6798 119.9 85.7049 119.788 85.7553C119.557 85.8557 119.373 86.04 119.272 86.271C119.222 86.3872 119.197 86.5127 119.198 86.6393C119.199 86.763 119.229 86.8849 119.284 86.9953C119.335 87.1139 119.401 87.2254 119.481 87.3268C119.57 87.4142 119.674 87.4848 119.788 87.5355C119.901 87.5835 120.022 87.6085 120.144 87.6092H121.127C121.211 87.5893 121.3 87.5893 121.384 87.6092C121.471 87.6371 121.55 87.6831 121.618 87.7442C121.678 87.8056 121.727 87.876 121.765 87.9529C121.779 88.0712 121.779 88.1907 121.765 88.309L117.958 88.3949Z" fill="black"/>
</g>
<defs>
<clipPath id="clip0_36_1366">
<rect width="323" height="95" fill="white"/>
</clipPath>
</defs>
</svg>
